<?xml version="1.0" encoding="UTF-8"?>
<!DOCTYPE svg PUBLIC "-//W3C//DTD SVG 1.1//EN" "http://www.w3.org/Graphics/SVG/1.1/DTD/svg11.dtd">
<!-- Creator: CorelDRAW 2021 (64-Bit) -->
<svg xmlns="http://www.w3.org/2000/svg" xml:space="preserve" width="91.4398mm" height="91.44mm" version="1.1" style="shape-rendering:geometricPrecision; text-rendering:geometricPrecision; image-rendering:optimizeQuality; fill-rule:evenodd; clip-rule:evenodd"
viewBox="0 0 91.4398 91.44"
 xmlns:xlink="http://www.w3.org/1999/xlink"
 xmlns:xodm="http://www.corel.com/coreldraw/odm/2003">
 <defs>
  <style type="text/css">
   <![CDATA[
    .fil0 {fill:#FFE70D}
   ]]>
  </style>
 </defs>
 <g id="Layer_x0020_1">
  <metadata id="CorelCorpID_0Corel-Layer"/>
  <g id="_2007943091584">
   <path class="fil0" d="M18.8354 56.3009c1.0665,0.4953 1.565,1.016 2.7553,1.652 1.4828,0.7919 1.5621,0.4707 2.9579,1.4484 1.25,0.8756 5.7549,1.7454 7.1059,1.8369 1.56,0.1057 2.1889,0.2603 2.6171,1.4585 0.484,1.3547 0.4962,2.0936 1.0403,3.3941 1.0851,2.5936 2.7403,6.1831 4.8826,8.14 5.4802,5.0059 10.3786,-1.2635 13.4173,-5.3938l2.4675 -4.0534c0.5672,-0.8334 0.4196,-0.7921 0.7733,-1.5797 4.0143,-0.1896 6.2709,0.298 9.6219,-0.9854 1.0784,-0.4131 1.1083,-0.0954 4.2176,-1.3335 1.9162,-0.763 1.5647,-1.3718 3.0418,-2.5142 1.5394,-4.2347 -3.5782,-11.4226 -6.6933,-14.4078 -2.336,-2.2385 -0.713,-3.5722 -0.0569,-6.6672 1.8893,-8.9123 1.9165,-14.6989 -7.5545,-13.3745 -12.1062,1.6927 -7.3448,4.7286 -13.5427,1.1736 -2.7921,-1.6015 -12.1362,-6.3493 -15.5028,-2.7697 -2.2246,2.3653 -2.316,9.3645 -2.1954,12.5532 0.2274,6.0073 2.1491,2.7409 -5.5409,9.1295 -0.3482,0.2893 -0.9829,0.9546 -1.2141,1.1968 -2.112,2.214 -5.506,5.2431 -4.4368,8.7618 0.301,0.9903 1.3368,1.5709 1.8389,2.3344z"/>
  </g>
 </g>
</svg>
