<?xml version="1.0" encoding="UTF-8"?>
<!DOCTYPE svg PUBLIC "-//W3C//DTD SVG 1.1//EN" "http://www.w3.org/Graphics/SVG/1.1/DTD/svg11.dtd">
<!-- Creator: CorelDRAW 2021 (64-Bit) -->
<svg xmlns="http://www.w3.org/2000/svg" xml:space="preserve" width="91.4398mm" height="91.44mm" version="1.1" style="shape-rendering:geometricPrecision; text-rendering:geometricPrecision; image-rendering:optimizeQuality; fill-rule:evenodd; clip-rule:evenodd"
viewBox="0 0 91.4398 91.44"
 xmlns:xlink="http://www.w3.org/1999/xlink"
 xmlns:xodm="http://www.corel.com/coreldraw/odm/2003">
 <defs>
  <style type="text/css">
   <![CDATA[
    .fil1 {fill:#051726}
    .fil9 {fill:#5F3449}
    .fil4 {fill:#CD436D}
    .fil8 {fill:#D6D070}
    .fil2 {fill:#F18299}
    .fil7 {fill:#F8AF90}
    .fil6 {fill:#FDF8C9}
    .fil0 {fill:#FEB4BE}
    .fil5 {fill:#FEC55A}
    .fil3 {fill:white}
   ]]>
  </style>
 </defs>
 <g id="Layer_x0020_1">
  <metadata id="CorelCorpID_0Corel-Layer"/>
  <path class="fil0" d="M57.5495 44.8313c1.7104,0.3834 3.5523,1.4297 2.3976,3.0733 -0.6863,0.9771 -2.469,1.1166 -3.9716,0.8194 -4.6945,-0.9284 -2.9146,-4.8988 1.574,-3.8927zm10.9431 1.6017c2.7128,0.2508 1.6201,3.7029 -0.3685,3.515 -2.1082,-0.1992 -2.3271,-3.7641 0.3685,-3.515zm8.312 4.7627c-1.2838,-0.5064 -2.4234,-1.8186 -0.899,-2.8581 1.0185,-0.6943 2.6919,-0.4991 4.0938,0.0512 1.8761,0.7366 1.861,2.2481 0.6406,2.8853 -0.8937,0.4664 -2.7115,0.3652 -3.8354,-0.0784zm-12.0671 -17.5838c3.9713,0.0234 2.0705,13.127 -1.369,12.9349 -2.248,-0.1255 -2.2408,-4.3991 -2.0779,-6.279 0.1777,-2.0487 1.1002,-6.6697 3.4469,-6.6559zm9.7336 1.0063c2.3112,-0.1295 2.3836,4.3227 2.1793,6.1346 -0.2406,2.1349 -0.9334,6.595 -3.2457,6.7013 -2.2398,0.103 -2.1948,-4.3209 -2.0355,-6.0975 0.1455,-1.6229 0.7427,-6.6062 3.1019,-6.7384zm-33.9815 -8.758c0.3219,-0.0929 0.0505,0.3026 0.336,-0.2042 0.2011,1.0564 0.036,1.0845 0.4341,2.6733 0.4364,1.741 1.2905,3.4782 2.1784,5.0758 0.4577,0.8234 1.1692,1.5662 1.5734,2.2945 -0.2829,1.3611 -0.5649,2.4157 -0.7308,3.6701 -0.4324,3.2696 -0.0363,6.891 0.878,9.806 1.3197,4.208 3.6402,7.5511 7.1961,10.3705 6.3384,5.0255 16.897,5.7376 22.9128,1.2981l2.2222 -1.7852c0.2763,-0.1817 0.0968,-0.1267 0.3696,-0.1554 0.1305,-0.0757 0.0515,0.011 0.2885,-0.2276 0.1401,-0.1408 0.0484,-0.0307 0.228,-0.2878l1.2531 -2.0123c1.6245,-3.113 2.7134,-5.6467 2.777,-9.2071 0.0231,-1.2906 -0.0317,-2.8663 -0.2082,-4.1342 -0.0536,-0.3859 -0.1886,-0.8354 -0.2698,-1.237 -0.5855,-2.897 -0.9536,-2.8217 -1.8039,-4.6692 -0.8533,-1.0692 -1.502,-1.99 -2.5667,-2.974 -1.0186,-0.9416 -2.0214,-1.8104 -3.1159,-2.6342 -2.3364,-1.7584 -5.4041,-3.1009 -8.4503,-3.8358 -4.3936,-1.0599 -9.4775,-0.5247 -13.3779,1.4901 -0.4158,0.2148 -1.1635,0.6753 -1.563,0.7636 -0.9415,-1.3701 -2.783,-3.1342 -4.4869,-4.264 -2.2657,-1.5025 -4.8166,-1.3641 -6.0738,0.186zm36.9762 33.6657c0.1522,-0.0902 0.0968,-0.0062 0.2627,-0.2085 0.12,-0.1463 0.0882,-0.1859 0.1347,-0.3209 -0.2974,0.0432 -0.0629,-0.0881 -0.2387,0.1705 -0.0938,0.1378 -0.0996,0.2051 -0.1587,0.3589z"/>
  <path class="fil1" d="M82.0494 67.555c-0.6028,1.1481 -2.9121,3.9291 -3.7819,4.2821l-0.2017 0.1181c-0.1133,0.2632 0.0194,0.1918 -0.1861,0.1189 -0.0404,0.2195 0.0311,0.2045 -0.1507,0.1429 -0.2019,0.2405 -0.2299,0.2336 -0.4403,0.3874l-0.0129 -0.0002c-0.1191,0.1843 -0.0418,0.1815 -0.2049,0.0983 -0.0247,0.2232 0.0444,0.2102 -0.1423,0.1369l0.0185 -0.0137c-0.5724,0.5135 -1.0256,0.6625 -1.7514,1.0285 -1.7366,0.8757 -3.5336,1.5476 -5.5635,1.8258 -3.0413,0.4168 -6.7698,-0.6394 -7.3516,-3.5421 -0.1608,-0.0631 -0.1266,-0.0129 -0.0206,-0.1728l0.0125 -0.1941c-0.1665,-0.1035 -0.1787,0.073 -0.0379,-0.2407 -0.1411,-0.2947 -0.1199,-0.3315 -0.0154,-0.7005 0.4715,-0.2597 1.3134,-0.2294 1.8762,-0.3341 1.3532,-0.2518 3.2022,-0.861 4.3592,-1.5622 0.4998,-0.3029 0.4903,-0.5726 0.7585,-0.7226 0.0172,-0.1971 -0.0386,-0.198 0.1179,-0.0906 0.0412,-0.1779 -0.0115,-0.1534 0.1541,-0.0811 0.0303,-0.1643 -0.0157,-0.144 0.1325,-0.0724l0.1623 -0.059 0.1231 -0.0842c0.0543,-0.1606 0.0008,-0.1265 0.173,-0.0782 0.0093,-0.1654 -0.0314,-0.1403 0.1214,-0.0765l0.549 -0.1663c0.0358,-0.1767 -0.0121,-0.1562 0.1424,-0.0642 0.0395,-0.2007 -0.0179,-0.1911 0.1467,-0.084 0.0295,-0.2033 -0.028,-0.1976 0.1364,-0.0902 0.0275,-0.2015 -0.0344,-0.1827 0.1403,-0.1247 0.033,-0.1503 -0.0109,-0.1263 0.1328,-0.0698 0.4252,-0.3595 2.546,-1.4831 3.8041,-2.4164l2.672 -2.182c0.2685,-0.2483 0.6281,-0.5899 0.9519,-0.7062 0.1864,-0.4651 1.1062,-1.3416 1.4758,-1.7992 1.4531,0.702 2.3472,2.1082 2.6062,3.1356 0.3282,1.3023 -0.0703,2.9708 -0.9056,4.4535zm-6.0178 -38.7538l0.2636 0.2379 0.1204 0.1452c3.9027,3.9058 6.5885,8.2525 7.069,14.0681 0.5049,6.1127 -1.721,12.526 -6.2204,16.821 -0.0967,0.2068 -0.0179,0.1991 -0.1881,0.1323l0.0064 0.0577 -0.2591 0.1531 -0.3651 0.3893c-0.8108,0.9334 -2.287,2.0437 -3.3641,2.7574 -1.3257,0.8784 -5.1349,2.8157 -6.4689,2.7893 -0.0424,0.1783 0.0016,0.1458 -0.1538,0.0333 -0.0761,0.154 -0.0198,0.1252 -0.1838,0.0325l-0.1873 0.0922c-0.1001,0.1562 -0.0353,0.1301 -0.2056,0.0154 -0.0468,0.1759 0.0073,0.1298 -0.1907,0.0909 -0.2964,0.2094 -0.5524,0.2052 -0.8314,0.1398 -0.2312,0.1683 -0.0507,0.1164 -0.4532,0.145 -0.7552,0.314 -3.4934,0.3422 -4.5849,0.305 -3.6733,-0.1248 -7.2616,-1.3262 -10.3089,-3.4087 -1.1227,-0.7674 -2.9764,-2.2677 -3.6609,-3.2127l-0.1608 -0.1717 -0.1326 -0.2056 -0.0372 0.0088c-0.2792,-0.2317 -0.1961,-0.0875 -0.1365,-0.2582 -0.2251,-0.0399 -0.2046,0.0336 -0.1575,-0.1534 -1.0202,-0.5831 -2.719,-3.9312 -3.208,-5.0212 -0.2237,-0.499 -0.3424,-0.847 -0.5255,-1.365l-1.3084 -4.3167 -0.1985 -0.5125c-0.0055,-0.0213 -0.0155,-0.0651 -0.0197,-0.0823 -0.0044,-0.0177 -0.0144,-0.056 -0.0229,-0.0836l-0.0975 0.8056c-0.5047,2.242 1.4156,8.0238 2.8184,10.4868 0.1876,0.3294 0.6818,1.0097 0.757,1.2767l2.3123 2.7773c0.579,0.6307 1.5573,1.405 1.2312,2.3035 -0.1601,0.4411 -0.3711,0.6209 -0.6728,0.773 -1.4168,1.1823 -4.0229,1.2035 -6.0879,-0.5793 -2.8424,-2.4541 -4.3289,-7.2367 -4.497,-10.8517 -0.0775,-1.6656 0.0143,-5.0707 0.8192,-6.8173 0.4617,-3.0053 2.9648,-5.2398 3.0176,-5.3728 0.1491,-0.3758 0.1366,-3.1899 1.2077,-6.108l1.7163 0.9052c0.0019,-0.5094 -0.3011,-0.7156 -0.5893,-1.1219 -1.3871,-1.9562 -2.8429,-5.816 -2.7938,-8.2714 0.1338,-1.6127 -0.0953,-2.7514 1.1389,-4.3296 2.0023,-2.5609 5.2648,-1.8067 7.6447,-0.1882 1.6963,1.1536 1.9589,1.936 2.8824,2.7914l1.3817 -0.8247c5.0647,-3.0131 11.9184,-3.3154 17.5759,-1.056 4.3676,1.7442 5.032,3.0806 6.3094,3.7788zm-36.0171 19.4003c-0.0783,-0.1717 -0.1714,0.0359 -0.1216,-0.2755 0.0581,0.4641 0.077,0.0929 -0.0735,0.4924l0.2304 -0.1618 -0.0353 -0.0551zm-0.1799 -0.3884l-0.0151 0.0015 0.0151 -0.0015zm46.821 -12.5558l-1.0559 1.9118c-0.2376,0.3749 -0.466,0.7015 -0.7137,1.1219 -0.2416,-0.2973 -0.3116,-0.6356 -0.4146,-1.0452 -0.0641,-0.2551 -0.051,-0.2415 -0.1274,-0.4691 -0.0944,-0.2814 -0.0853,-0.186 -0.1749,-0.5385l-0.8613 -1.8464c-0.2864,-0.5781 -0.6139,-1.2298 -0.9752,-1.7833l-2.5047 -3.4328c-0.3995,-0.2055 -0.9162,-0.7843 -1.1676,-1.1328 1.4692,-0.6651 5.1331,-0.9632 7.0633,0.5219 2.0072,1.5445 2.0372,3.8316 0.932,6.6925zm-57.4062 11.111c0.1124,-0.1727 -0.1021,-0.2119 0.23,-0.0872 0.1453,-0.2588 0.1785,-0.3656 0.2929,-0.6296 0.0374,-0.0864 0.0924,-0.2325 0.1368,-0.3101 0.1786,-0.3123 0.0457,-0.1267 0.2242,-0.263 0.3737,-1.4932 2.3905,-2.8044 3.2269,-3.0941 0.6113,-0.2118 1.3153,-0.4236 2.1324,-0.3772 1.3102,0.0744 1.5462,0.3297 2.1834,1.1075 -0.2959,0.4916 -0.9254,0.7976 -1.3381,1.2391 -0.4106,0.4391 -0.7748,1.0586 -1.1323,1.5704 -1.8503,4.1188 -2.5688,9.2286 -1.3104,13.5169 0.1544,0.526 0.1748,0.396 0.1292,0.9386l-0.9336 0.0251c-1.5393,0.0316 -3.0793,0.24 -4.6212,0.3492 -0.8269,0.0585 -4.0885,0.4439 -4.6319,0.2714 -0.2255,0.1117 -0.1832,0.1005 -0.497,0.1393l-13.338 1.0335c-3.0056,0.2629 -2.2805,2.6455 -0.642,2.5872 4.3803,-0.1556 9.3816,-0.6964 13.879,-1.0113 1.018,-0.0713 4.0246,-0.4843 4.7594,-0.2595 -0.0036,-0.2194 -0.0391,-0.1448 0.2079,-0.076 0.2931,-0.1935 2.7289,-0.2809 3.3142,-0.3322 0.7807,-0.0686 2.7986,-0.3611 3.4871,-0.2215 0.645,2.0267 1.7754,3.5578 3.2471,5.2574l0.12 0.133 0.1391 0.189c1.3564,0.6171 3.2204,2.5422 6.5868,1.8686 1.9231,-0.3848 3.3835,-1.3331 4.7733,-3.4573l1.2993 0.6437 3.2198 1.2812c-0.457,1.2156 -1.4142,2.4842 -2.3639,2.9815 -1.5106,1.5073 -4.9913,2.0051 -7.193,0.8266 -1.0975,-0.5876 -1.5255,-0.2895 -2.6738,-0.3549 -4.6762,-0.0387 -11.032,0.4275 -16.1533,0.5043l-6.0172 0.1879c-0.7285,0.0322 -1.3672,0.125 -1.6187,1.1267 -0.4584,1.8263 1.9702,1.4047 3.1441,1.3558 1.3265,-0.0553 2.7828,-0.1082 4.1103,-0.1027 2.6639,0.0113 5.3888,-0.2065 8.125,-0.2289 2.7114,-0.0223 5.4784,-0.1033 8.2066,-0.2274 3.8569,-0.1754 1.9394,0.1889 4.3247,0.5904 1.4974,0.2521 2.927,0.0737 4.0471,-0.2461 2.6468,-0.7559 4.3754,-2.2502 5.8007,-4.5374 0.4387,-0.7038 0.5078,-0.4174 2.0181,-0.2283 0.5535,0.0693 1.1201,0.0864 1.6588,0.2245 -0.2783,1.84 0.5575,3.7156 1.3924,4.8816 1.0171,1.42 3.2641,2.5724 5.2874,2.8775 3.1194,0.4706 6.2609,-0.3596 9.0257,-1.6187 0.4581,-0.2086 0.7223,-0.4414 1.141,-0.6292 4.1824,-1.8769 10.1052,-8.0554 8.543,-13.3941 -0.4085,-1.3961 -1.3974,-3.0271 -3.2674,-4.1489 0.9675,-2.0926 1.4295,-1.9081 2.7152,-5.5708 1.0533,-3.0007 1.2351,-5.4372 1.1975,-8.4233 -0.0166,-1.3223 -0.2236,-1.8033 -0.2576,-2.543 -0.0301,-0.6564 1.0169,-1.68 1.4452,-2.3223 0.5639,-0.8456 1.076,-1.7107 1.5241,-2.6525 2.8117,-5.909 0.523,-11.6011 -7.0116,-11.5456 -1.5689,0.0115 -3.7473,0.4342 -4.8337,1.0417 -0.9826,-0.6031 -1.8117,-1.3076 -2.8893,-1.9224 -3.397,-1.938 -6.7483,-2.8178 -10.5372,-3.0956 -3.1907,-0.2339 -7.3939,0.4246 -10.3214,1.8801 -0.4182,0.2079 -0.9429,0.3712 -1.2834,0.6633 -0.7374,-0.4201 -1.1444,-1.0974 -3.12,-2.1413 -3.2987,-1.7427 -7.3747,-2.0082 -9.9596,0.9759 -2.4508,2.8294 -2.1304,6.4065 -1.2644,9.5842 0.3839,1.4084 0.6567,2.4439 1.2933,3.7941 -0.7465,1.9141 -0.7952,2.8232 -1.0596,3.5235 -0.4357,0.0251 -0.9182,-0.1207 -1.3844,-0.1624 -1.2866,-0.1152 -2.8999,0.1505 -3.9913,0.5946 -1.6492,0.6707 -3.0686,2.1683 -3.9221,3.8258l-5.464 1.4109c-1.6349,0.4884 -6.1173,1.4249 -7.4919,1.8682l-4.8688 1.2008c-0.5719,0.1524 -2.4492,0.5482 -2.7514,0.7772 -0.7717,0.5847 -1.2086,2.9657 2.1055,1.9839 1.3782,-0.4083 4.7573,-1.0547 6.1596,-1.4681l2.1654 -0.5059c0.9447,-0.28 1.7801,-0.4417 2.7081,-0.6885l7.6702 -1.8683c0.6424,-0.1694 0.3134,-0.2042 0.7457,-0.0865z"/>
  <path class="fil2" d="M43.4351 60.9929c-0.0752,-0.267 -0.5694,-0.9473 -0.757,-1.2767 -1.4028,-2.463 -3.3231,-8.2448 -2.8184,-10.4868 -0.1433,-0.2951 -0.1086,-0.3506 -0.1003,-0.7115l0.0601 -0.7033 0.0151 -0.0015 0.0268 -0.7161c0.1688,0.3781 0.1512,0.6829 0.1531,1.1045l0.0353 0.0551c0.066,0.1627 0.044,0.0655 0.0873,0.2649 0.0058,0.0269 0.0092,0.0594 0.0141,0.0874l0.0471 0.4933 1.3084 4.3167c0.1831,0.518 0.3018,0.866 0.5255,1.365 0.489,1.09 2.1878,4.4381 3.208,5.0212 -0.0471,0.187 -0.0676,0.1135 0.1575,0.1534 -0.0596,0.1707 -0.1427,0.0265 0.1365,0.2582 -0.0432,-0.2484 0.2587,-0.1191 -0.1365,-0.2582 0.1192,-0.2126 0.1139,-0.1264 -0.1575,-0.1534l0.5533 0.4595 -0.2221 -0.0567 0.1326 0.2056 0.1608 0.1717c0.0763,-0.1944 0.0849,-0.1111 -0.1608,-0.1717 0.3719,-0.0365 1.2569,0.9727 1.8241,1.4245 2.1838,1.7401 4.397,2.9336 7.1971,3.8945 2.9153,1.0003 4.7902,1.1507 7.5883,1.1119 0.7952,-0.0111 1.8476,0.0014 2.2031,-0.2319 0.0078,0.0297 0.0318,0.0726 0.0312,0.0868l-0.1283 0.2023c0.4025,-0.0286 0.222,0.0233 0.4532,-0.145 -0.2457,-0.1272 -0.0632,0.0868 -0.2129,-0.1922 0.5032,0.0841 1.5522,-0.1684 2.0662,-0.3436 0.0158,0.1001 0.2716,-0.0231 -0.1007,0.1317 -0.1308,-0.1086 -0.0795,-0.1197 -0.1538,0.0333 -0.1797,-0.1213 -0.1275,-0.1607 -0.1838,0.0325l-0.1873 0.0922c-0.203,-0.1303 -0.1512,-0.187 -0.2056,0.0154 -0.1774,-0.1259 -0.1046,-0.1284 -0.1907,0.0909 0.198,0.0389 0.1439,0.085 0.1907,-0.0909 0.1703,0.1147 0.1055,0.1408 0.2056,-0.0154l0.1873 -0.0922c0.164,0.0927 0.1077,0.1215 0.1838,-0.0325 0.1554,0.1125 0.1114,0.145 0.1538,-0.0333 1.334,0.0264 5.1432,-1.9109 6.4689,-2.7893 1.0771,-0.7137 2.5533,-1.824 3.3641,-2.7574 -0.1879,0.0686 -0.0976,-0.1987 -0.3825,0.2927 0.2579,-0.4306 0.4841,-0.3727 0.822,-0.8479l-0.0744 0.1659 0.2591 -0.1531 -0.023 -0.0962c0.0051,-0.0137 0.0108,0.0258 0.0166,0.0385 0.1702,0.0668 0.0914,0.0745 0.1881,-0.1323 -0.045,-0.1709 -0.0657,0.013 0.0394,-0.2731 0,0 0.1246,-0.2016 0.1622,-0.2744 0.0591,-0.1538 0.0649,-0.2211 0.1587,-0.3589 0.1758,-0.2586 -0.0587,-0.1273 0.2387,-0.1705l-0.0038 -0.0928c-0.2728,0.0287 -0.0933,-0.0263 -0.3696,0.1554l-2.2222 1.7852c-6.0158,4.4395 -16.5744,3.7274 -22.9128,-1.2981 -3.5559,-2.8194 -5.8764,-6.1625 -7.1961,-10.3705 -0.9143,-2.915 -1.3104,-6.5364 -0.878,-9.806 0.1659,-1.2544 0.4479,-2.309 0.7308,-3.6701 -0.4042,-0.7283 -1.1157,-1.4711 -1.5734,-2.2945 -0.8879,-1.5976 -1.742,-3.3348 -2.1784,-5.0758 -0.3981,-1.5888 -0.233,-1.6169 -0.4341,-2.6733 -0.2855,0.5068 -0.0141,0.1113 -0.336,0.2042 -0.2958,0.3676 -0.5905,0.7764 -0.8081,1.2816l-0.3613 1.2208c-0.1552,0.3356 -0.0143,0.158 -0.2216,0.2669 -0.0491,2.4554 1.4067,6.3152 2.7938,8.2714 0.2882,0.4063 0.5912,0.6125 0.5893,1.1219l-1.7163 -0.9052c-1.0711,2.9181 -1.0586,5.7322 -1.2077,6.108 -0.0528,0.133 -2.5559,2.3675 -3.0176,5.3728l0.2274 -0.5026c0.0434,0.3939 -0.1894,1.1372 -0.314,1.7215 -0.1206,0.5653 -0.1555,1.1287 -0.2759,1.6875 -0.226,1.05 -0.0909,2.7322 0.0323,3.8824 0.0698,0.6502 -0.1101,1.0294 0.2777,2.2432 0.3796,1.1885 0.3992,2.3394 0.9519,3.4791 0.5452,1.1239 0.881,2.1344 1.7448,3.2234 1.4172,1.7866 3.5034,3.1016 5.889,2.7185 0.2357,-0.0378 0.572,-0.0692 0.7731,-0.1066 0.4669,-0.087 0.4065,-0.1345 0.6913,-0.4271 -3.676,-1.1549 -5.4564,-3.6245 -6.7187,-6.9745 -0.6518,-1.7295 -2.1053,-7.0757 -1.1768,-9.4656 0.4026,0.5895 0.4417,2.0735 0.7518,3.2992 0.2824,1.116 1.0673,4.2148 1.8316,5.0737 0.0391,0.044 1.3898,2.7561 2.4766,3.1701 -0.0584,-0.2181 -0.0182,-0.0636 -0.1027,-0.2609l-0.1644 -0.3668z"/>
  <path class="fil3" d="M30.1333 45.0784c-0.0433,0.3394 -0.0438,0.3175 -0.1863,0.6539 -0.016,0.0378 -0.128,0.2846 -0.1471,0.3111 -0.2551,0.3524 -0.0131,0.1606 -0.3205,0.2377 -0.1241,0.1411 0.0713,0.1685 -0.23,0.0872 0.1934,0.2487 0.1072,0.781 0.0385,1.1037 -1.1129,0.1235 -2.4697,0.5206 -3.56,0.7442 -2.2993,0.4715 -5.4141,1.1092 -6.2875,3.3583 -0.2882,0.7424 -0.2685,1.4229 -0.1087,1.9648l0.8065 1.6323c-0.6305,0.2231 -1.8751,0.3348 -2.5691,0.4627 -0.3119,0.0576 -0.9244,0.144 -1.2445,0.1643 -0.4186,0.0266 -0.8716,0.1301 -1.3284,0.1846 -0.4521,0.0538 -0.8694,0.1523 -1.2423,0.2099l-11.8198 1.6984c-1.0366,0.4785 -0.8719,1.8351 0.0978,2.2098 0.3103,0.1199 17.0521,-0.2774 19.2022,-0.331 0.7816,-0.0195 2.1777,-0.1468 2.9203,0.006 -0.3067,0.416 -0.1236,0.1677 -0.4305,0.4446 -0.3009,0.2714 -0.0537,0.1998 -0.3551,0.219l0.4689 0.1854c0.5434,0.1725 3.805,-0.2129 4.6319,-0.2714 1.5419,-0.1092 3.0819,-0.3176 4.6212,-0.3492 -0.2696,-0.6661 -0.9947,-1.0487 -1.6205,-3.3554 -0.9616,-3.5453 -0.5162,-8.1081 2.8824,-10.7455 0.3871,-0.3004 0.3739,-0.3629 0.8529,-0.3797 0.3575,-0.5118 0.7217,-1.1313 1.1323,-1.5704 0.4127,-0.4415 1.0422,-0.7475 1.3381,-1.2391 -0.6372,-0.7778 -0.8732,-1.0331 -2.1834,-1.1075 -0.8171,-0.0464 -1.5211,0.1654 -2.1324,0.3772 -0.8364,0.2897 -2.8532,1.6009 -3.2269,3.0941z"/>
  <path class="fil3" d="M28.207 63.0385c-0.0962,0.2452 -0.0203,0.2444 -0.2079,0.076 -0.546,0.6561 -0.7908,1.3591 -0.8006,2.2194 -0.0107,0.9223 0.3942,1.2925 0.3728,1.8654l-14.2701 1.37c-0.5862,0.0467 -1.0201,0.1114 -1.6231,0.1343 -1.1098,0.0422 -2.3429,0.2047 -2.4553,1.5651 -0.1172,1.4174 0.9917,1.7588 2.1204,1.6725l6.5133 -0.2566c0.9927,-0.0283 2.2177,-0.1617 3.2244,-0.1381l12.9818 -0.4077c1.0268,-0.0586 2.1087,-0.051 3.2069,-0.1245 1.0838,-0.0728 2.075,-0.0446 3.1737,-0.2318 -0.0683,-0.159 -0.0103,-0.0616 -0.1367,-0.2203l-0.1185 -0.1286c-0.1108,-0.1151 -0.1812,-0.1546 -0.317,-0.2981 -0.1909,-0.2016 -0.3461,-0.3992 -0.5463,-0.6457 -0.1783,-0.2195 -0.351,-0.4351 -0.4945,-0.6689l-0.301 -0.6721c0.007,-0.0391 -0.0126,-0.0561 -0.0148,-0.0846l-0.1391 -0.189 -0.12 -0.133c-1.4717,-1.6996 -2.6021,-3.2307 -3.2471,-5.2574 -0.6885,-0.1396 -2.7064,0.1529 -3.4871,0.2215 -0.5853,0.0513 -3.0211,0.1387 -3.3142,0.3322z"/>
  <path class="fil3" d="M76.0316 28.8012l0.2636 0.2379 0.1204 0.1452 -0.1204 -0.1452 -0.2636 -0.2379c-1.2774,-0.6982 -1.9418,-2.0346 -6.3094,-3.7788 -5.6575,-2.2594 -12.5112,-1.9571 -17.5759,1.056l-1.3817 0.8247c-0.9235,-0.8554 -1.1861,-1.6378 -2.8824,-2.7914 -2.3799,-1.6185 -5.6424,-2.3727 -7.6447,0.1882 -1.2342,1.5782 -1.0051,2.7169 -1.1389,4.3296 0.2073,-0.1089 0.0664,0.0687 0.2216,-0.2669l0.3613 -1.2208c0.2176,-0.5052 0.5123,-0.914 0.8081,-1.2816 1.2572,-1.5501 3.8081,-1.6885 6.0738,-0.186 1.7039,1.1298 3.5454,2.8939 4.4869,4.264 0.3995,-0.0883 1.1472,-0.5488 1.563,-0.7636 3.9004,-2.0148 8.9843,-2.55 13.3779,-1.4901 3.0462,0.7349 6.1139,2.0774 8.4503,3.8358 1.0945,0.8238 2.0973,1.6926 3.1159,2.6342 1.0647,0.984 1.7134,1.9048 2.5667,2.974 0.4161,0.2423 0.2219,0.1813 0.6159,0.1884 0.628,-0.7591 -0.0949,-0.9288 -0.1782,-1.0274 -0.0497,-0.0585 0.0053,0.1472 -0.0329,-0.1105l-0.0344 -0.6217c-0.0027,-0.0359 -0.0068,-0.1437 -0.0127,-0.179l-0.4401 -1.3365c-0.7892,-1.2444 -0.4322,-0.1905 -1.0064,-1.492l-0.4093 -0.6201c-0.2574,-0.2758 -0.2732,-0.1817 -0.5206,-0.4943l-0.1921 -0.2737c-0.0319,-0.0435 -0.1728,-0.2296 -0.2016,-0.2631 -0.5586,-0.6533 -0.5299,-0.6899 -1.1855,-1.1643l-0.7492 -0.7185c0.1983,-0.7077 -0.0161,-0.0781 0.2546,-0.2146z"/>
  <path class="fil2" d="M81.7905 67.3159c0.5244,-0.9692 0.4713,-3.1579 0.0757,-3.8857 -0.5855,0.4848 -1.2501,1.0018 -2.2645,0.4224 -0.8091,-0.4621 -0.6866,-1.2337 -0.7287,-2.0875 -0.3238,0.1163 -0.6834,0.4579 -0.9519,0.7062l-2.672 2.182c-1.2581,0.9333 -3.3789,2.0569 -3.8041,2.4164l-0.1328 0.0698 -0.1403 0.1247c-0.0283,0.2046 0.0292,0.1987 -0.1364,0.0902 -0.0272,0.2028 0.0267,0.1845 -0.1467,0.084 -0.0305,0.184 0.0166,0.162 -0.1424,0.0642l-0.549 0.1663 -0.1214 0.0765c-0.031,0.2235 0.0242,0.1924 -0.173,0.0782l-0.1231 0.0842c-0.0314,0.1788 0.0137,0.1404 -0.1623,0.059l-0.1325 0.0724c-0.0456,0.201 0.0124,0.1895 -0.1541,0.0811l-0.1179 0.0906c-0.2606,2.255 4.8151,3.9587 9.148,0.3684 1.3679,-1.1335 1.3186,-1.3345 2.2043,-2.2408l0.4534 -0.3509c-0.6737,1.9061 -2.4179,3.2694 -3.6578,4.293 -2.9492,2.4346 -8.7835,4.7519 -12.6593,2.9482 -0.7409,-0.3448 -1.2683,-0.8135 -1.8379,-1.3327 -0.3045,-0.2775 -0.2499,-0.2265 -0.4959,-0.5455 -0.0584,0.0426 -0.0317,-0.0596 -0.1333,0.1797l0.0379 0.2407 -0.0125 0.1941 0.0206 0.1728c0.5818,2.9027 4.3103,3.9589 7.3516,3.5421 2.0299,-0.2782 3.8269,-0.9501 5.5635,-1.8258 0.7258,-0.366 1.179,-0.515 1.7514,-1.0285l-0.2157 0.0661c1.3038,-0.9878 2.9291,-2.5153 3.9142,-3.8203 0.7727,-1.0238 0.9336,-1.4769 1.1449,-1.7556zm-4.5018 5.2885c0.2104,-0.1538 0.2384,-0.1469 0.4403,-0.3874 0.1818,0.0616 0.1103,0.0766 0.1507,-0.1429 0.2055,0.0729 0.0728,0.1443 0.1861,-0.1189l0.2017 -0.1181c-0.2403,-0.0944 -0.1748,-0.1366 -0.2017,0.1181l-0.1861 0.1189c-0.1974,-0.1093 -0.1184,-0.1076 -0.1507,0.1429 -0.4065,0.1825 -0.1998,0.007 -0.4403,0.3874zm-0.2178 0.0981c0.1631,0.0832 0.0858,0.086 0.2049,-0.0983 -0.2396,-0.094 -0.1827,-0.146 -0.2049,0.0983l-0.1423 0.1369c0.1867,0.0733 0.1176,0.0863 0.1423,-0.1369z"/>
  <path class="fil1" d="M64.8598 34.6658c1.5911,0.1074 1.2057,4.5879 -0.2231,4.4648 -1.7545,-0.1511 -1.5137,-4.5821 0.2231,-4.4648zm-0.1223 -1.0539c-2.3467,-0.0138 -3.2692,4.6072 -3.4469,6.6559 -0.1629,1.8799 -0.1701,6.1535 2.0779,6.279 3.4395,0.1921 5.3403,-12.9115 1.369,-12.9349z"/>
  <path class="fil1" d="M74.5386 35.6273c1.6045,0.038 1.3835,4.2669 -0.0199,4.2639 -1.6247,-0.0032 -1.5401,-4.3009 0.0199,-4.2639zm-0.0675 -1.0091c-2.3592,0.1322 -2.9564,5.1155 -3.1019,6.7384 -0.1593,1.7766 -0.2043,6.2005 2.0355,6.0975 2.3123,-0.1063 3.0051,-4.5664 3.2457,-6.7013 0.2043,-1.8119 0.1319,-6.2641 -2.1793,-6.1346z"/>
  <path class="fil4" d="M69.2131 68.2109l0.1179 -0.0906c0.1665,0.1084 0.1085,0.1199 0.1541,-0.0811l0.1325 -0.0724c0.176,0.0814 0.1309,0.1198 0.1623,-0.059l0.1231 -0.0842c0.1972,0.1142 0.142,0.1453 0.173,-0.0782l0.1214 -0.0765 0.549 -0.1663c0.159,0.0978 0.1119,0.1198 0.1424,-0.0642 0.1734,0.1005 0.1195,0.1188 0.1467,-0.084 0.1656,0.1085 0.1081,0.1144 0.1364,-0.0902l0.1403 -0.1247 0.1328 -0.0698c-0.1437,-0.0565 -0.0998,-0.0805 -0.1328,0.0698 -0.1747,-0.058 -0.1128,-0.0768 -0.1403,0.1247 -0.1644,-0.1074 -0.1069,-0.1131 -0.1364,0.0902 -0.1646,-0.1071 -0.1072,-0.1167 -0.1467,0.084 -0.1545,-0.092 -0.1066,-0.1125 -0.1424,0.0642l-0.549 0.1663c-0.1528,-0.0638 -0.1121,-0.0889 -0.1214,0.0765 -0.1722,-0.0483 -0.1187,-0.0824 -0.173,0.0782l-0.1231 0.0842 -0.1623 0.059c-0.1482,-0.0716 -0.1022,-0.0919 -0.1325,0.0724 -0.1656,-0.0723 -0.1129,-0.0968 -0.1541,0.0811 -0.1565,-0.1074 -0.1007,-0.1065 -0.1179,0.0906 -0.2682,0.15 -0.2587,0.4197 -0.7585,0.7226 -1.157,0.7012 -3.006,1.3104 -4.3592,1.5622 -0.5628,0.1047 -1.4047,0.0744 -1.8762,0.3341 -0.1045,0.369 -0.1257,0.4058 0.0154,0.7005 -0.1408,0.3137 -0.1286,0.1372 0.0379,0.2407l-0.0125 0.1941c-0.106,0.1599 -0.1402,0.1097 0.0206,0.1728l-0.0206 -0.1728 0.0125 -0.1941 -0.0379 -0.2407c0.1016,-0.2393 0.0749,-0.1371 0.1333,-0.1797 0.246,0.319 0.1914,0.268 0.4959,0.5455 0.5696,0.5192 1.097,0.9879 1.8379,1.3327 3.8758,1.8037 9.7101,-0.5136 12.6593,-2.9482 1.2399,-1.0236 2.9841,-2.3869 3.6578,-4.293l-0.4534 0.3509c-0.8857,0.9063 -0.8364,1.1073 -2.2043,2.2408 -4.3329,3.5903 -9.4086,1.8866 -9.148,-0.3684z"/>
  <path class="fil5" d="M38.5145 68.0642l-0.1391 -0.189 -0.12 -0.133 0.12 0.133 0.1391 0.189c0.0022,0.0285 0.0218,0.0455 0.0148,0.0846l0.301 0.6721c0.1435,0.2338 0.3162,0.4494 0.4945,0.6689 0.2002,0.2465 0.3554,0.4441 0.5463,0.6457 0.1358,0.1435 0.2062,0.183 0.317,0.2981l0.1185 0.1286c0.1264,0.1587 0.0684,0.0613 0.1367,0.2203 0.9048,0.325 0.5839,0.6417 1.7197,1.0711 1.1483,0.0654 1.5763,-0.2327 2.6738,0.3549 2.2017,1.1785 5.6824,0.6807 7.193,-0.8266 0.1308,-0.2288 1.7192,-1.7337 1.926,-2.5436l-0.0253 -0.4544c-0.5269,-0.1544 -0.2783,-0.1651 -0.6128,0.1062 -0.0161,-0.0304 -0.0303,-0.0724 -0.0438,-0.0933 -0.3431,-0.5281 -1.2654,-0.602 -2.5235,-1.2755l0.4235 -0.0021 -1.2993 -0.6437c-1.3898,2.1242 -2.8502,3.0725 -4.7733,3.4573 -3.3664,0.6736 -5.2304,-1.2515 -6.5868,-1.8686z"/>
  <path class="fil4" d="M46.5377 66.5177l-0.2319 0.329c0.3017,-0.1521 0.5127,-0.3319 0.6728,-0.773 0.3261,-0.8985 -0.6522,-1.6728 -1.2312,-2.3035l-2.3123 -2.7773 0.1644 0.3668c0.0845,0.1973 0.0443,0.0428 0.1027,0.2609 -1.0868,-0.414 -2.4375,-3.1261 -2.4766,-3.1701 -0.7643,-0.8589 -1.5492,-3.9577 -1.8316,-5.0737 -0.3101,-1.2257 -0.3492,-2.7097 -0.7518,-3.2992 -0.9285,2.3899 0.525,7.7361 1.1768,9.4656 1.2623,3.35 3.0427,5.8196 6.7187,6.9745z"/>
  <path class="fil6" d="M80.1241 37.1285c0.8503,1.8475 1.2184,1.7722 1.8039,4.6692 0.0812,0.4016 0.2162,0.8511 0.2698,1.237 0.1765,1.2679 0.2313,2.8436 0.2082,4.1342 -0.0636,3.5604 -1.1525,6.0941 -2.777,9.2071l-1.2531 2.0123c-0.1796,0.2571 -0.0879,0.147 -0.228,0.2878 -0.237,0.2386 -0.158,0.1519 -0.2885,0.2276l0.0038 0.0928c-0.0465,0.135 -0.0147,0.1746 -0.1347,0.3209 -0.1659,0.2023 -0.1105,0.1183 -0.2627,0.2085 -0.0376,0.0728 -0.1622,0.2744 -0.1622,0.2744 -0.1051,0.2861 -0.0844,0.1022 -0.0394,0.2731 4.4994,-4.295 6.7253,-10.7083 6.2204,-16.821 -0.4805,-5.8156 -3.1663,-10.1623 -7.069,-14.0681l-0.1204 -0.1452 -0.2636 -0.2379c-0.2707,0.1365 -0.0563,-0.4931 -0.2546,0.2146l0.7492 0.7185c0.6556,0.4744 0.6269,0.511 1.1855,1.1643 0.0288,0.0335 0.1697,0.2196 0.2016,0.2631l0.1921 0.2737c0.2474,0.3126 0.2632,0.2185 0.5206,0.4943l0.4093 0.6201c0.5742,1.3015 0.2172,0.2476 1.0064,1.492l0.4401 1.3365c0.0059,0.0353 0.01,0.1431 0.0127,0.179l0.0344 0.6217c0.0382,0.2577 -0.0168,0.052 0.0329,0.1105 0.0833,0.0986 0.8062,0.2683 0.1782,1.0274 -0.394,-0.0071 -0.1998,0.0539 -0.6159,-0.1884zm-3.0416 23.1349l-0.0064 -0.0577c-0.0058,-0.0127 -0.0115,-0.0522 -0.0166,-0.0385l0.023 0.0962zm-0.6242 0.5424l0.3651 -0.3893 0.0744 -0.1659c-0.3379,0.4752 -0.5641,0.4173 -0.822,0.8479 0.2849,-0.4914 0.1946,-0.2241 0.3825,-0.2927z"/>
  <path class="fil5" d="M33.0908 60.0047l0.9336 -0.0251c0.0456,-0.5426 0.0252,-0.4126 -0.1292,-0.9386 -1.2584,-4.2883 -0.5399,-9.3981 1.3104,-13.5169 -0.479,0.0168 -0.4658,0.0793 -0.8529,0.3797 -3.3986,2.6374 -3.844,7.2002 -2.8824,10.7455 0.6258,2.3067 1.3509,2.6893 1.6205,3.3554z"/>
  <path class="fil0" d="M79.8279 29.1757l2.5047 3.4328c0.3613,0.5535 0.6888,1.2052 0.9752,1.7833l0.8613 1.8464 0.2771 0.4011c0.0892,0.2316 0.0569,0.1372 0.0463,0.4229 0.2956,-0.4406 -0.1805,0.3471 0.069,-0.148 0.0044,-0.0086 0.0213,-0.0436 0.0259,-0.0524l0.4065 -0.0543c0.187,-0.2466 0.9066,-1.1502 1.1869,-1.3034l-0.5811 1.665 1.0559 -1.9118c-0.1342,0.0669 -0.1051,-0.1478 -0.3135,0.3314 1.214,-3.7561 -1.4996,-6.3684 -5.2263,-6.3491 -0.4796,0.0025 -0.886,0.1374 -1.2879,-0.0639z"/>
  <path class="fil2" d="M57.5495 44.8313c-4.4886,-1.0061 -6.2685,2.9643 -1.574,3.8927 1.5026,0.2972 3.2853,0.1577 3.9716,-0.8194 1.1547,-1.6436 -0.6872,-2.6899 -2.3976,-3.0733z"/>
  <path class="fil3" d="M79.8279 29.1757c0.4019,0.2013 0.8083,0.0664 1.2879,0.0639 3.7267,-0.0193 6.4403,2.593 5.2263,6.3491 0.2084,-0.4792 0.1793,-0.2645 0.3135,-0.3314 1.1052,-2.8609 1.0752,-5.148 -0.932,-6.6925 -1.9302,-1.4851 -5.5941,-1.187 -7.0633,-0.5219 0.2514,0.3485 0.7681,0.9273 1.1676,1.1328z"/>
  <path class="fil2" d="M76.8046 51.1957c1.1239,0.4436 2.9417,0.5448 3.8354,0.0784 1.2204,-0.6372 1.2355,-2.1487 -0.6406,-2.8853 -1.4019,-0.5503 -3.0753,-0.7455 -4.0938,-0.0512 -1.5244,1.0395 -0.3848,2.3517 0.899,2.8581z"/>
  <path class="fil3" d="M78.873 61.7651c0.0421,0.8538 -0.0804,1.6254 0.7287,2.0875 1.0144,0.5794 1.679,0.0624 2.2645,-0.4224 0.3956,0.7278 0.4487,2.9165 -0.0757,3.8857 0.0382,0.1505 0.0528,0.0217 0.0285,0.251 -0.0066,0.0621 -0.0416,0.1558 -0.0606,0.2126 0.3084,-0.5634 0.0103,-0.057 0.291,-0.2245 0.8353,-1.4827 1.2338,-3.1512 0.9056,-4.4535 -0.259,-1.0274 -1.1531,-2.4336 -2.6062,-3.1356 -0.3696,0.4576 -1.2894,1.3341 -1.4758,1.7992z"/>
  <path class="fil7" d="M36.5401 48.5984c-0.8049,1.7466 -0.8967,5.1517 -0.8192,6.8173 0.1681,3.615 1.6546,8.3976 4.497,10.8517 2.065,1.7828 4.6711,1.7616 6.0879,0.5793l0.2319 -0.329c-0.2848,0.2926 -0.2244,0.3401 -0.6913,0.4271 -0.2011,0.0374 -0.5374,0.0688 -0.7731,0.1066 -2.3856,0.3831 -4.4718,-0.9319 -5.889,-2.7185 -0.8638,-1.089 -1.1996,-2.0995 -1.7448,-3.2234 -0.5527,-1.1397 -0.5723,-2.2906 -0.9519,-3.4791 -0.3878,-1.2138 -0.2079,-1.593 -0.2777,-2.2432 -0.1232,-1.1502 -0.2583,-2.8324 -0.0323,-3.8824 0.1204,-0.5588 0.1553,-1.1222 0.2759,-1.6875 0.1246,-0.5843 0.3574,-1.3276 0.314,-1.7215l-0.2274 0.5026z"/>
  <path class="fil1" d="M68.4926 46.433c-2.6956,-0.2491 -2.4767,3.3158 -0.3685,3.515 1.9886,0.1879 3.0813,-3.2642 0.3685,-3.515z"/>
  <path class="fil7" d="M64.8727 66.7566c0.279,0.0654 0.535,0.0696 0.8314,-0.1398 0.0861,-0.2193 0.0133,-0.2168 0.1907,-0.0909 0.0544,-0.2024 0.0026,-0.1457 0.2056,-0.0154l0.1873 -0.0922c0.0563,-0.1932 0.0041,-0.1538 0.1838,-0.0325 0.0743,-0.153 0.023,-0.1419 0.1538,-0.0333 0.3723,-0.1548 0.1165,-0.0316 0.1007,-0.1317 -0.514,0.1752 -1.563,0.4277 -2.0662,0.3436 0.1497,0.279 -0.0328,0.065 0.2129,0.1922zm-19.1687 -6.3431c0.2457,0.0606 0.2371,-0.0227 0.1608,0.1717 0.6845,0.945 2.5382,2.4453 3.6609,3.2127 3.0473,2.0825 6.6356,3.2839 10.3089,3.4087 1.0915,0.0372 3.8297,0.009 4.5849,-0.305l0.1283 -0.2023c0.0006,-0.0142 -0.0234,-0.0571 -0.0312,-0.0868 -0.3555,0.2333 -1.4079,0.2208 -2.2031,0.2319 -2.7981,0.0388 -4.673,-0.1116 -7.5883,-1.1119 -2.8001,-0.9609 -5.0133,-2.1544 -7.1971,-3.8945 -0.5672,-0.4518 -1.4522,-1.461 -1.8241,-1.4245zm-0.4638 -0.6084c0.2714,0.027 0.2767,-0.0592 0.1575,0.1534 0.3952,0.1391 0.0933,0.0098 0.1365,0.2582l0.0372 -0.0088 0.2221 0.0567 -0.5533 -0.4595z"/>
  <path class="fil3" d="M64.8598 34.6658c-1.7368,-0.1173 -1.9776,4.3137 -0.2231,4.4648 1.4288,0.1231 1.8142,-4.3574 0.2231,-4.4648z"/>
  <path class="fil3" d="M74.5386 35.6273c-1.56,-0.037 -1.6446,4.2607 -0.0199,4.2639 1.4034,0.003 1.6244,-4.2259 0.0199,-4.2639z"/>
  <path class="fil7" d="M76.9471 72.8257l-0.0185 0.0137 0.1423 -0.1369c0.0222,-0.2443 -0.0347,-0.1923 0.2049,-0.0983l0.0129 0.0002c0.2405,-0.3804 0.0338,-0.2049 0.4403,-0.3874 0.0323,-0.2505 -0.0467,-0.2522 0.1507,-0.1429l0.1861 -0.1189c0.0269,-0.2547 -0.0386,-0.2125 0.2017,-0.1181 0.8698,-0.353 3.1791,-3.134 3.7819,-4.2821 -0.2807,0.1675 0.0174,-0.3389 -0.291,0.2245 0.019,-0.0568 0.054,-0.1505 0.0606,-0.2126 0.0243,-0.2293 0.0097,-0.1005 -0.0285,-0.251 -0.2113,0.2787 -0.3722,0.7318 -1.1449,1.7556 -0.9851,1.305 -2.6104,2.8325 -3.9142,3.8203l0.2157 -0.0661z"/>
  <path class="fil7" d="M84.1691 36.2382c0.0896,0.3525 0.0805,0.2571 0.1749,0.5385 0.0764,0.2276 0.0633,0.214 0.1274,0.4691 0.103,0.4096 0.173,0.7479 0.4146,1.0452 0.2477,-0.4204 0.4761,-0.747 0.7137,-1.1219l0.5811 -1.665c-0.2803,0.1532 -0.9999,1.0568 -1.1869,1.3034l-0.4065 0.0543c-0.0046,0.0088 -0.0215,0.0438 -0.0259,0.0524 -0.2495,0.4951 0.2266,-0.2926 -0.069,0.148 0.0106,-0.2857 0.0429,-0.1913 -0.0463,-0.4229l-0.2771 -0.4011z"/>
  <path class="fil8" d="M52.0298 71.3819c0.9497,-0.4973 1.9069,-1.7659 2.3639,-2.9815l-3.2198 -1.2812 -0.4235 0.0021c1.2581,0.6735 2.1804,0.7474 2.5235,1.2755 0.0135,0.0209 0.0277,0.0629 0.0438,0.0933 0.3345,-0.2713 0.0859,-0.2606 0.6128,-0.1062l0.0253 0.4544c-0.2068,0.8099 -1.7952,2.3148 -1.926,2.5436z"/>
  <path class="fil9" d="M39.8346 47.8131l-0.0151 0.0015 -0.0601 0.7033c-0.0083,0.3609 -0.043,0.4164 0.1003,0.7115l0.0975 -0.8056c0.0085,0.0276 0.0185,0.0659 0.0229,0.0836 0.0042,0.0172 0.0142,0.061 0.0197,0.0823l0.1985 0.5125 -0.0471 -0.4933c-0.0049,-0.028 -0.0083,-0.0605 -0.0141,-0.0874 -0.0433,-0.1994 -0.0213,-0.1022 -0.0873,-0.2649l-0.2304 0.1618c0.1505,-0.3995 0.1316,-0.0283 0.0735,-0.4924 -0.0498,0.3114 0.0433,0.1038 0.1216,0.2755 -0.0019,-0.4216 0.0157,-0.7264 -0.1531,-1.1045l-0.0268 0.7161z"/>
 </g>
</svg>
